# xmcd
#
# Track frame offsets:
#	150
#	13263
#	28806
#	44369
#	60932
#	76145
#	92616
#	104354
#	117069
#	131740
#
# Disc length: 1954 seconds
#
# Revision: 0
# Processed by: cddbd v1.5.1PL0 Copyright (c) Steve Scherf et al.
# Submitted via: audiograbber 1.83.01
#
DISCID=7707a00a
DTITLE=Chesnutt, Mark - Thank God For Believers - Chesnutt, Mark - Thank God Fo
DTITLE=r Believers
DYEAR=1997
DGENRE=Country
TTITLE0=Goodbye Heartache
TTITLE1=Thank God  For Believers
TTITLE2=Wherever You Are
TTITLE3=I Might Even Quit Lovin' You
TTITLE4=Numbers On The Jukebox
TTITLE5=That Side Of You
TTITLE6=Useless
TTITLE7=Hello Honky Tonk
TTITLE8=Any Ole Reason
TTITLE9=It's Not Over (Featuring Vince Gill and Alison Krauss)
EXTD=
EXTT0=\n
EXTT1=
EXTT2=
EXTT3=
EXTT4=
EXTT5=
EXTT6=
EXTT7=
EXTT8=
EXTT9=
PLAYORDER=
